<svg width="48" height="48" viewBox="0 0 48 48" fill="none" xmlns="http://www.w3.org/2000/svg">
<path d="M24.0004 23.8299C28.0138 23.8299 31.2674 20.5764 31.2674 16.5629C31.2674 12.5495 28.0138 9.2959 24.0004 9.2959C19.9869 9.2959 16.7333 12.5495 16.7333 16.5629C16.7333 20.5764 19.9869 23.8299 24.0004 23.8299Z" fill="#0067D5" fill-opacity="0.1" stroke="#0067D5" stroke-width="1.5" stroke-linecap="round" stroke-linejoin="round"/>
<path d="M35.8663 35.0521C35.2316 32.4939 33.7854 30.2042 31.7374 28.5303C29.5538 26.7455 26.8203 25.7705 24 25.7705C21.1798 25.7705 18.4463 26.7455 16.2626 28.5303C14.2147 30.2042 12.7685 32.4939 12.1337 35.052C12.7472 35.2566 13.3877 35.3995 14.0478 35.4731C17.2858 35.834 20.6105 36.144 24.0001 36.144C27.3898 36.144 30.7144 35.834 33.9525 35.4731C34.6125 35.3995 35.253 35.2567 35.8663 35.0521Z" fill="#0067D5" fill-opacity="0.1" stroke="#0067D5" stroke-width="1.5" stroke-linecap="round" stroke-linejoin="round"/>
<path d="M34.309 3.23145C36.9633 3.51737 39.5677 3.84621 42.1132 4.10822C43.074 4.20711 43.8357 4.96814 43.9336 5.92908C44.1922 8.46691 44.5088 11.0636 44.782 13.7099" stroke="#0067D5" stroke-width="1.5" stroke-linecap="round"/>
<path d="M34.309 44.7686C36.9633 44.4826 39.5677 44.1538 42.1132 43.8918C43.074 43.7929 43.8357 43.0319 43.9336 42.0709C44.1922 39.5331 44.5088 36.9364 44.782 34.2901" stroke="#0067D5" stroke-width="1.5" stroke-linecap="round"/>
<path d="M13.691 3.23145C11.0367 3.51737 8.43225 3.84621 5.8868 4.10822C4.92596 4.20711 4.16432 4.96814 4.06641 5.92908C3.80781 8.46691 3.4912 11.0636 3.21796 13.7099" stroke="#0067D5" stroke-width="1.5" stroke-linecap="round"/>
<path d="M13.691 44.7686C11.0367 44.4826 8.43225 44.1538 5.8868 43.8918C4.92596 43.7929 4.16432 43.0319 4.06641 42.0709C3.80781 39.5331 3.4912 36.9364 3.21796 34.2901" stroke="#0067D5" stroke-width="1.5" stroke-linecap="round"/>
</svg>
