<svg width="50" height="50" viewBox="0 0 50 50" fill="none" xmlns="http://www.w3.org/2000/svg">
<path d="M2.01427 38.8825C2.54353 43.683 6.39023 47.5285 11.1885 48.0778C15.6914 48.5934 20.3312 49.0713 25.0714 49.0713C29.8115 49.0713 34.4513 48.5934 38.9542 48.0779C43.7525 47.5285 47.5992 43.683 48.1284 38.8825C48.6224 34.4025 49.0714 29.7867 49.0714 25.0713C49.0714 20.3559 48.6224 15.74 48.1284 11.2601C47.5992 6.45957 43.7525 2.61405 38.9542 2.06473C34.4513 1.54921 29.8115 1.07129 25.0714 1.07129C20.3312 1.07129 15.6914 1.54921 11.1885 2.06473C6.39023 2.61405 2.54352 6.45957 2.01427 11.2601C1.52034 15.74 1.07135 20.3559 1.07135 25.0713C1.07135 29.7867 1.52034 34.4025 2.01427 38.8825Z" fill="#E0281B" fill-opacity="0.1"/>
<path d="M2.01427 38.8825C2.54353 43.683 6.39023 47.5285 11.1885 48.0778C15.6914 48.5934 20.3312 49.0713 25.0714 49.0713C29.8115 49.0713 34.4513 48.5934 38.9542 48.0779C43.7525 47.5285 47.5992 43.683 48.1284 38.8825C48.6224 34.4025 49.0714 29.7867 49.0714 25.0713C49.0714 20.3559 48.6224 15.74 48.1284 11.2601C47.5992 6.45957 43.7525 2.61405 38.9542 2.06473C34.4513 1.54921 29.8115 1.07129 25.0714 1.07129C20.3312 1.07129 15.6914 1.54921 11.1885 2.06473C6.39023 2.61405 2.54352 6.45957 2.01427 11.2601C1.52034 15.74 1.07135 20.3559 1.07135 25.0713C1.07135 29.7867 1.52034 34.4025 2.01427 38.8825Z" stroke="#E0281B" stroke-width="1.5"/>
<path fill-rule="evenodd" clip-rule="evenodd" d="M32.3901 18.8135C32.683 18.5206 32.683 18.0458 32.3901 17.7529C32.0972 17.46 31.6224 17.46 31.3295 17.7529L25.0717 24.0106L18.814 17.7529C18.5211 17.46 18.0462 17.46 17.7533 17.7529C17.4604 18.0458 17.4604 18.5206 17.7533 18.8135L24.0111 25.0713L17.753 31.3293C17.4601 31.6222 17.4601 32.0971 17.753 32.39C18.0459 32.6829 18.5208 32.6829 18.8137 32.39L25.0717 26.1319L31.3298 32.39C31.6226 32.6829 32.0975 32.6829 32.3904 32.39C32.6833 32.0971 32.6833 31.6222 32.3904 31.3293L26.1324 25.0713L32.3901 18.8135Z" fill="#E0281B"/>
</svg>
