<svg width="20" height="20" viewBox="0 0 20 20" fill="none" xmlns="http://www.w3.org/2000/svg">
<path fill-rule="evenodd" clip-rule="evenodd" d="M2.4166 4.99967C2.4166 4.49341 2.827 4.08301 3.33327 4.08301H16.6666C17.1729 4.08301 17.5833 4.49341 17.5833 4.99967V5.42098L10.4601 9.94745L10.4583 9.94853C10.3208 10.0342 10.162 10.0797 9.99993 10.0797C9.83784 10.0797 9.67902 10.0342 9.54148 9.9485L2.4166 5.42098V4.99967ZM0.916599 5.82035C0.916472 5.82832 0.916472 5.83629 0.916599 5.84425V14.9997C0.916599 16.3344 1.99858 17.4163 3.33327 17.4163H16.6666C18.0013 17.4163 19.0833 16.3344 19.0833 14.9997V5.84424C19.0834 5.83629 19.0834 5.82832 19.0833 5.82036V4.99967C19.0833 3.66499 18.0013 2.58301 16.6666 2.58301H3.33327C1.99858 2.58301 0.916599 3.66499 0.916599 4.99967V5.82035ZM17.5833 7.19821V14.9997C17.5833 15.5059 17.1729 15.9163 16.6666 15.9163H3.33327C2.827 15.9163 2.4166 15.5059 2.4166 14.9997V7.19821L8.73935 11.216L8.73935 11.216L8.7434 11.2186C9.12003 11.4545 9.55549 11.5797 9.99993 11.5797C10.4444 11.5797 10.8798 11.4545 11.2565 11.2186L11.2565 11.2186L11.2605 11.216L17.5833 7.19821Z" fill="#BFC5CD"/>
</svg>
