<svg width="20" height="20" viewBox="0 0 20 20" fill="none" xmlns="http://www.w3.org/2000/svg">
<g clip-path="url(#clip0_311_6498)">
<path d="M8.23366 8.23366C7.98804 8.46253 7.79103 8.73853 7.65439 9.0452C7.51775 9.35186 7.44428 9.68291 7.43835 10.0186C7.43243 10.3543 7.49418 10.6877 7.61992 10.999C7.74565 11.3103 7.9328 11.5931 8.1702 11.8305C8.40759 12.0678 8.69037 12.255 9.00167 12.3807C9.31296 12.5065 9.64639 12.5682 9.98207 12.5623C10.3177 12.5564 10.6488 12.4829 10.9555 12.3463C11.2621 12.2096 11.5381 12.0126 11.767 11.767M8.94199 4.23366C9.29308 4.18992 9.64652 4.16765 10.0003 4.16699C15.8337 4.16699 18.3337 10.0003 18.3337 10.0003C17.9611 10.7979 17.4938 11.5478 16.942 12.2337M5.50866 5.50866C3.85137 6.63751 2.52522 8.18804 1.66699 10.0003C1.66699 10.0003 4.16699 15.8337 10.0003 15.8337C11.5969 15.8379 13.1593 15.3712 14.492 14.492M1.66699 1.66699L18.3337 18.3337" stroke="#BFC5CD" stroke-width="1.5" stroke-linecap="round" stroke-linejoin="round"/>
</g>
<defs>
<clipPath id="clip0_311_6498">
<rect width="20" height="20" fill="white"/>
</clipPath>
</defs>
</svg>
